<svg width="12" height="11" viewBox="0 0 12 11" fill="none" xmlns="http://www.w3.org/2000/svg">
<path d="M11.9232 3.92622V9.20088C11.9232 9.49288 11.8192 9.74355 11.6112 9.95288C11.4018 10.1596 11.1525 10.2635 10.8605 10.2635H1.08049C0.788489 10.2635 0.537822 10.1596 0.329823 9.95288C0.121823 9.74355 0.0178223 9.49288 0.0178223 9.20088V3.92622C0.212489 4.14355 0.436489 4.33555 0.688489 4.50488C2.29116 5.59288 3.39249 6.35822 3.98982 6.79555C4.24316 6.98222 4.44849 7.12755 4.60449 7.23155C4.76182 7.33555 4.97116 7.44222 5.23249 7.55022C5.49382 7.65822 5.73782 7.71288 5.96316 7.71288H5.96982H5.97782C6.20316 7.71288 6.44582 7.65822 6.70716 7.55022C6.96849 7.44222 7.17782 7.33555 7.33516 7.23155C7.49249 7.12755 7.69782 6.98222 7.94982 6.79555C8.70315 6.25155 9.80582 5.48755 11.2578 4.50488C11.5112 4.33155 11.7325 4.13955 11.9232 3.92622ZM11.9232 1.97288C11.9232 2.32222 11.8138 2.65688 11.5978 2.97688C11.3805 3.29422 11.1098 3.56755 10.7872 3.79288C9.12182 4.95022 8.08582 5.66888 7.67782 5.95288C7.63382 5.98355 7.53916 6.05155 7.39515 6.15555C7.25116 6.25955 7.13116 6.34355 7.03649 6.40755C6.94182 6.47155 6.82582 6.54355 6.69116 6.62355C6.55649 6.70355 6.42849 6.76222 6.30982 6.80355C6.18982 6.84355 6.07915 6.86222 5.97782 6.86222H5.96982H5.96316C5.86182 6.86222 5.75116 6.84355 5.63116 6.80355C5.51116 6.76222 5.38449 6.70355 5.24982 6.62355C5.11516 6.54355 4.99916 6.47155 4.90449 6.40755C4.80849 6.34355 4.68849 6.25955 4.54582 6.15555C4.40049 6.05155 4.30716 5.98355 4.26316 5.95288C3.86049 5.66888 3.27916 5.26488 2.52182 4.73955C1.76449 4.21555 1.31116 3.89955 1.16049 3.79288C0.885823 3.60755 0.625822 3.35155 0.383156 3.02622C0.139156 2.70088 0.0178223 2.39822 0.0178223 2.11955C0.0178223 1.77288 0.109822 1.48488 0.293822 1.25555C0.477822 1.02488 0.739155 0.910217 1.08049 0.910217H10.8605C11.1472 0.910217 11.3965 1.01422 11.6072 1.22222C11.8178 1.43022 11.9232 1.68088 11.9232 1.97288Z" fill="white"/>
</svg>
