<svg width="14" height="14" viewBox="0 0 14 14" fill="none" xmlns="http://www.w3.org/2000/svg">
<path d="M13.4017 10.5929C13.4017 10.7583 13.3711 10.9729 13.3097 11.2369C13.2497 11.5023 13.1844 11.7103 13.1177 11.8636C12.9897 12.1676 12.6191 12.4903 12.0044 12.8316C11.4311 13.1423 10.8644 13.2969 10.3044 13.2969C10.1404 13.2969 9.97906 13.2863 9.8204 13.2649C9.66173 13.2436 9.48706 13.2049 9.29506 13.1503C9.10306 13.0956 8.9604 13.0516 8.86573 13.0183C8.77106 12.9849 8.60173 12.9223 8.35906 12.8316C8.11506 12.7396 7.96573 12.6849 7.91106 12.6663C7.31506 12.4543 6.78173 12.2009 6.3124 11.9089C5.53906 11.4276 4.73506 10.7703 3.90173 9.9356C3.06706 9.10094 2.4084 8.29694 1.9284 7.5236C1.63506 7.0556 1.38306 6.52227 1.16973 5.92494C1.15106 5.87027 1.0964 5.72094 1.00573 5.47827C0.91373 5.23427 0.851063 5.06494 0.81773 4.97027C0.784397 4.8756 0.740397 4.73293 0.68573 4.54094C0.631063 4.34894 0.592396 4.17427 0.571063 4.0156C0.549729 3.85694 0.539062 3.6956 0.539062 3.5316C0.539062 2.9716 0.695063 2.40493 1.00573 1.83294C1.34573 1.21694 1.6684 0.846269 1.97373 0.718269C2.12573 0.650269 2.33373 0.587603 2.59906 0.526269C2.8644 0.464935 3.07906 0.434269 3.24306 0.434269C3.3284 0.434269 3.3924 0.443602 3.43506 0.462269C3.5444 0.498268 3.70573 0.730268 3.91906 1.15693C3.98573 1.27293 4.07773 1.43694 4.19373 1.65027C4.3084 1.8636 4.41506 2.05694 4.5124 2.23027C4.61106 2.4036 4.70573 2.56627 4.7964 2.71827C4.81506 2.7436 4.8684 2.81827 4.9564 2.9476C5.0444 3.07427 5.10973 3.1836 5.1524 3.2716C5.19506 3.3596 5.2164 3.44627 5.2164 3.5316C5.2164 3.65294 5.12973 3.80627 4.9564 3.98894C4.78306 4.1716 4.59373 4.33827 4.38973 4.49027C4.18573 4.6436 3.9964 4.80494 3.82306 4.9756C3.64973 5.14627 3.56306 5.28627 3.56306 5.3956C3.56306 5.45027 3.57773 5.51827 3.6084 5.60094C3.63906 5.68227 3.6644 5.74494 3.68573 5.7876C3.70706 5.8316 3.74973 5.9036 3.81506 6.0076C3.87773 6.1116 3.9124 6.16894 3.91906 6.18094C4.38173 7.0156 4.91106 7.7316 5.5084 8.3276C6.10573 8.92494 6.8204 9.45427 7.65506 9.91694C7.66706 9.9236 7.72573 9.95827 7.8284 10.0223C7.9324 10.0863 8.00573 10.1289 8.0484 10.1503C8.09106 10.1716 8.15373 10.1983 8.23506 10.2276C8.31773 10.2583 8.38573 10.2729 8.4404 10.2729C8.55106 10.2729 8.69106 10.1863 8.86173 10.0129C9.0324 9.8396 9.19373 9.65027 9.34573 9.44627C9.49773 9.24227 9.66573 9.05427 9.84706 8.8796C10.0311 8.70627 10.1831 8.62094 10.3044 8.62094C10.3897 8.62094 10.4764 8.64094 10.5657 8.6836C10.6524 8.72627 10.7617 8.7916 10.8897 8.8796C11.0164 8.96894 11.0937 9.02227 11.1177 9.0396C11.2697 9.1316 11.4324 9.22627 11.6057 9.3236C11.7804 9.42094 11.9737 9.5276 12.1857 9.6436C12.4004 9.7596 12.5644 9.85027 12.6791 9.91694C13.1057 10.1303 13.3377 10.2916 13.3737 10.4009C13.3924 10.4436 13.4017 10.5076 13.4017 10.5929Z" fill="white"/>
</svg>
